<?xml version="1.0" encoding="utf-8"?>
<!-- Generated by IcoMoon.io -->
<!DOCTYPE svg PUBLIC "-//W3C//DTD SVG 1.1//EN" "http://www.w3.org/Graphics/SVG/1.1/DTD/svg11.dtd">
<svg version="1.1" xmlns="http://www.w3.org/2000/svg" xmlns:xlink="http://www.w3.org/1999/xlink" width="32" height="32" viewBox="0 0 32 32">
<path fill="#000000" d="M19.872 28.189c0.024-3.473 0.043-3.285-0.423-4.283-0.213-0.457-0.267-0.628-0.214-0.681 0.039-0.039 0.242-0.095 0.452-0.124 0.887-0.123 2.2-0.595 3.088-1.111 1.105-0.642 1.735-1.296 2.222-2.312 0.58-1.207 0.792-2.278 0.798-4.023 0.004-1.134-0.009-1.3-0.142-1.781-0.186-0.675-0.545-1.464-0.889-1.956-0.423-0.605-0.423-0.604-0.318-1.051 0.157-0.668 0.183-1.566 0.066-2.204-0.154-0.836-0.278-1.22-0.448-1.392-0.145-0.147-0.178-0.153-0.666-0.118-0.665 0.048-1.489 0.37-2.581 1.010-0.879 0.515-1.067 0.577-1.422 0.471-1.595-0.475-5.097-0.475-6.691 0-0.355 0.106-0.543 0.044-1.422-0.471-1.060-0.621-1.912-0.958-2.542-1.008-0.76-0.059-0.823 0.009-1.088 1.196-0.148 0.661-0.163 0.83-0.13 1.435 0.020 0.378 0.078 0.861 0.129 1.075 0.107 0.452 0.097 0.49-0.265 0.985-0.358 0.489-0.765 1.364-0.943 2.028-0.131 0.485-0.142 0.646-0.133 1.872 0.009 1.252 0.022 1.397 0.195 2.159 0.505 2.223 1.341 3.346 3.193 4.293 0.918 0.469 2.289 0.913 2.819 0.913 0.104 0 0.24 0.039 0.304 0.086 0.111 0.082 0.105 0.107-0.142 0.609-0.142 0.288-0.299 0.691-0.35 0.897-0.155 0.631-0.427 0.749-1.723 0.749-0.8 0-0.886-0.012-1.203-0.163-0.421-0.2-1.094-0.829-1.428-1.333-0.137-0.207-0.451-0.577-0.697-0.822-0.353-0.35-0.543-0.485-0.897-0.633-0.247-0.103-0.564-0.207-0.704-0.23-0.323-0.053-0.739 0.058-0.824 0.221-0.124 0.235-0.043 0.339 0.925 1.176 0.511 0.442 0.798 0.88 1.32 2.017 0.207 0.45 0.996 1.282 1.425 1.503 0.578 0.297 0.952 0.355 2.291 0.355 1.158 0 1.239 0.008 1.298 0.121 0.039 0.075 0.064 0.775 0.064 1.841 0 1.496-0.012 1.72-0.093 1.72-0.051 0-0.432-0.115-0.846-0.255-4.912-1.663-8.72-5.843-9.974-10.948-1.631-6.643 1.163-13.506 6.954-17.082 4.794-2.96 10.999-2.96 15.793 0 3.859 2.382 6.429 6.215 7.209 10.747 0.135 0.786 0.198 2.328 0.145 3.542-0.244 5.56-3.754 10.765-8.853 13.13-0.72 0.334-1.986 0.797-2.452 0.897l-0.206 0.044 0.022-3.111z"></path>
</svg>
