<?xml version="1.0" encoding="utf-8"?>
<!-- Generated by IcoMoon.io -->
<!DOCTYPE svg PUBLIC "-//W3C//DTD SVG 1.1//EN" "http://www.w3.org/Graphics/SVG/1.1/DTD/svg11.dtd">
<svg version="1.1" xmlns="http://www.w3.org/2000/svg" xmlns:xlink="http://www.w3.org/1999/xlink" width="32" height="32" viewBox="0 0 32 32">
<path fill="#000000" d="M14.579 31.234c-6.463-0.618-11.857-5.247-13.419-11.514-1.629-6.539 1.161-13.295 6.945-16.815 4.788-2.913 10.985-2.913 15.773 0 8.778 5.341 9.967 17.476 2.392 24.411-3.129 2.865-7.474 4.321-11.692 3.918zM22.093 23.898c0.896-0.272 1.524-0.902 1.798-1.806 0.070-0.229 0.086-0.97 0.087-3.862 0.001-3.497-0.002-3.582-0.122-3.702-0.117-0.117-0.205-0.123-1.959-0.123-1.576 0-1.847 0.013-1.914 0.094-0.064 0.077-0.062 0.178 0.008 0.538 0.132 0.68 0.107 1.58-0.061 2.133-0.397 1.309-1.386 2.319-2.693 2.75-0.674 0.222-1.739 0.233-2.413 0.025-1.315-0.406-2.334-1.404-2.74-2.683-0.12-0.377-0.147-0.595-0.147-1.154 0-0.412 0.037-0.825 0.091-1.027 0.127-0.475 0.117-0.651-0.044-0.764-0.116-0.081-0.401-0.096-1.871-0.096-1.827 0-1.981 0.020-2.098 0.278-0.089 0.195-0.030 7.142 0.064 7.524 0.215 0.876 0.844 1.547 1.733 1.851 0.287 0.098 0.78 0.107 6.148 0.11 4.948 0.003 5.882-0.010 6.132-0.086zM17.044 18.774c0.753-0.288 1.42-0.951 1.722-1.713 0.202-0.51 0.202-1.607 0-2.116-0.506-1.277-1.929-2.118-3.22-1.903-1.208 0.202-2.193 1.116-2.47 2.291-0.125 0.529-0.118 0.803 0.033 1.347 0.171 0.617 0.389 1.004 0.796 1.41 0.38 0.38 0.801 0.63 1.295 0.768 0.469 0.131 1.389 0.089 1.844-0.085zM23.856 12.808c0.115-0.115 0.123-0.204 0.122-1.367-0-0.89-0.025-1.325-0.087-1.528-0.275-0.905-0.915-1.547-1.8-1.804-0.236-0.069-1.416-0.094-6.014-0.129l-5.72-0.044-0.455 0.138c-0.583 0.177-0.894 0.362-1.251 0.744-0.558 0.596-0.707 1.136-0.708 2.558-0.001 1.144 0.036 1.319 0.301 1.429 0.112 0.046 0.943 0.062 2.649 0.050l2.486-0.017 0.492-0.293c0.718-0.429 1.139-0.547 2.073-0.582 0.718-0.027 0.826-0.016 1.29 0.129 0.292 0.091 0.742 0.303 1.060 0.498l0.553 0.339 2.442 0c2.361 0 2.446-0.004 2.565-0.123zM19.609 11.846c-0.089-0.015-0.227-0.098-0.307-0.183-0.141-0.15-0.146-0.187-0.146-1.163v-1.007l0.341-0.341h2.145l0.341 0.341v2.022l-0.17 0.17c-0.17 0.17-0.171 0.17-1.106 0.18-0.515 0.005-1.008-0.003-1.097-0.019z"></path>
</svg>
