<?xml version="1.0" encoding="utf-8"?>
<!-- Generated by IcoMoon.io -->
<!DOCTYPE svg PUBLIC "-//W3C//DTD SVG 1.1//EN" "http://www.w3.org/Graphics/SVG/1.1/DTD/svg11.dtd">
<svg version="1.1" xmlns="http://www.w3.org/2000/svg" xmlns:xlink="http://www.w3.org/1999/xlink" width="32" height="32" viewBox="0 0 32 32">
<path fill="#000000" d="M14.579 31.234c-6.463-0.618-11.857-5.247-13.419-11.514-1.629-6.539 1.161-13.295 6.945-16.815 4.788-2.913 10.985-2.913 15.773 0 8.778 5.341 9.967 17.476 2.392 24.411-3.129 2.865-7.474 4.321-11.692 3.918zM11.322 19.17c0.678-0.221 4.127-1.65 7.895-3.271 0.98-0.422 2.362-1.015 3.072-1.318 1.668-0.712 2.795-1.256 2.795-1.348 0-0.119-0.49-0.025-2.327 0.445-0.934 0.239-1.822 0.461-1.974 0.495-0.36 0.079-3.281 0.845-7.004 1.836-1.673 0.446-1.697 0.45-2.458 0.449-0.85-0.001-1.050-0.057-1.445-0.404-0.505-0.443-0.639-1.148-0.4-2.101 0.213-0.852 0.089-0.932-0.481-0.31-0.771 0.841-1.491 2.072-1.703 2.909-0.149 0.59-0.098 1.409 0.112 1.819 0.158 0.308 0.515 0.681 0.794 0.831 0.374 0.201 0.641 0.239 1.526 0.218 0.833-0.020 0.937-0.036 1.597-0.251zM24.408 19.321c0.13-0.070 0.211-0.294 0.309-0.85 0.129-0.736 0.232-0.808 1.151-0.809 0.425-0 0.527-0.020 0.63-0.123 0.148-0.148 0.154-0.236 0.027-0.416-0.083-0.118-0.152-0.137-0.507-0.137-0.226-0-0.515-0.029-0.641-0.064-0.294-0.082-0.334-0.23-0.237-0.865 0.080-0.522 0.041-0.69-0.178-0.76-0.174-0.055-0.357 0.017-0.441 0.173-0.040 0.074-0.122 0.381-0.182 0.683-0.148 0.739-0.194 0.779-0.922 0.813-0.756 0.035-0.843 0.057-0.923 0.234-0.054 0.119-0.047 0.181 0.034 0.305 0.093 0.142 0.141 0.156 0.516 0.156 0.567 0 0.863 0.090 0.91 0.274 0.020 0.080 0.006 0.34-0.030 0.577-0.089 0.573-0.087 0.603 0.056 0.746 0.136 0.136 0.258 0.154 0.429 0.062z"></path>
</svg>
