<?xml version="1.0" encoding="utf-8"?>
<!-- Generated by IcoMoon.io -->
<!DOCTYPE svg PUBLIC "-//W3C//DTD SVG 1.1//EN" "http://www.w3.org/Graphics/SVG/1.1/DTD/svg11.dtd">
<svg version="1.1" xmlns="http://www.w3.org/2000/svg" xmlns:xlink="http://www.w3.org/1999/xlink" width="40" height="32" viewBox="0 0 40 32">
<path fill="#000000" d="M31.946 30.114c-3.25-1.196-12.285-6.095-13.872-7.522-0.945-0.849-2.678-1.934-3.851-2.411-3.032-1.232-10.143-5.138-11.29-6.201-0.843-0.782-0.946-1.084-0.806-2.356 0.265-2.406 2.027-5.505 4.457-7.838 3.029-2.909 4.301-2.953 6.848-0.239 2.26 2.409 3.807 2.868 7.058 2.094 2.449-0.583 3.414-0.434 4.396 0.68 0.308 0.349 1.87 3.26 3.472 6.468 2.459 4.925 3.159 6.038 4.495 7.149 3.571 2.968 4.671 4.074 5.326 5.358 0.597 1.171 0.636 1.525 0.293 2.67-0.706 2.357-3.478 3.27-6.525 2.148zM15.542 18.477c0.284-0.74-0.369-1.244-5.439-4.199-2.288-1.334-4.425-2.605-4.75-2.825-0.467-0.317-0.699-0.29-1.119 0.129-0.291 0.291-0.444 0.748-0.339 1.015 0.235 0.599 9.984 6.378 10.824 6.416 0.334 0.015 0.704-0.226 0.823-0.536zM28.52 15.354c0.081-0.55-0.067-0.739-0.576-0.739-0.896 0-1.231 0.581-0.703 1.218 0.553 0.666 1.143 0.445 1.279-0.478zM26.63 12.828c0.215-0.615-0.095-1.277-0.597-1.277-0.599 0-1.303 0.915-1.036 1.347 0.306 0.495 1.453 0.445 1.633-0.070zM24.666 9.339c0-1.014-1.329-0.913-1.474 0.112-0.093 0.66 0.021 0.774 0.681 0.681 0.529-0.075 0.793-0.339 0.793-0.793z"></path>
</svg>
