<?xml version="1.0" encoding="utf-8"?>
<!-- Generated by IcoMoon.io -->
<!DOCTYPE svg PUBLIC "-//W3C//DTD SVG 1.1//EN" "http://www.w3.org/Graphics/SVG/1.1/DTD/svg11.dtd">
<svg version="1.1" xmlns="http://www.w3.org/2000/svg" xmlns:xlink="http://www.w3.org/1999/xlink" width="32" height="32" viewBox="0 0 32 32">
<path fill="#000000" d="M14.577 31.234c-6.462-0.618-11.855-5.245-13.416-11.511-2.143-8.598 3.415-17.185 12.145-18.763 0.73-0.132 2.166-0.267 2.502-0.235l0.213 0.020 0.031 10.822c0.025 8.766 0.046 10.837 0.111 10.902 0.115 0.115 2.674 0.115 2.789 0 0.061-0.061 0.087-0.563 0.111-2.129 0.017-1.127 0.047-2.066 0.068-2.087 0.058-0.058 0.199 0.019 0.304 0.168 0.053 0.075 0.476 0.736 0.941 1.47 1.192 1.882 1.578 2.236 2.756 2.53 0.503 0.125 0.673 0.139 1.46 0.112 0.49-0.016 0.925-0.057 0.968-0.091 0.057-0.046 0.077-0.384 0.077-1.306s-0.020-1.26-0.077-1.305c-0.042-0.033-0.304-0.076-0.583-0.094-0.948-0.062-1.308-0.374-2.347-2.033-0.772-1.233-0.821-1.333-0.745-1.528 0.029-0.076 0.547-0.832 1.15-1.68 1.576-2.216 2.313-3.272 2.408-3.447 0.155-0.288 0.056-0.31-1.559-0.358-1.298-0.038-1.5-0.031-1.669 0.056-0.134 0.069-0.572 0.627-1.44 1.836-1.406 1.957-1.49 2.058-1.621 1.949-0.077-0.064-0.090-0.982-0.090-6.796 0-6.372 0.006-6.72 0.108-6.691 0.059 0.017 0.342 0.089 0.63 0.161 2.336 0.584 4.662 1.84 6.468 3.493 6.685 6.12 6.685 16.5 0 22.62-3.129 2.864-7.473 4.32-11.69 3.916zM12.273 22.494c1.526-0.446 2.522-1.328 2.881-2.552 0.133-0.454 0.134-1.782 0.001-2.299-0.142-0.55-0.422-1.033-0.819-1.412-0.626-0.597-1.232-0.816-2.913-1.055-1.124-0.159-1.324-0.22-1.557-0.469-0.426-0.458-0.254-1.035 0.411-1.377 0.144-0.074 0.398-0.119 0.768-0.136 0.637-0.029 1.137 0.077 1.698 0.36 0.565 0.285 0.577 0.281 1.44-0.582 0.905-0.905 0.929-0.973 0.482-1.384-0.34-0.313-1.113-0.692-1.778-0.872-0.381-0.103-0.724-0.139-1.526-0.16-0.909-0.024-1.105-0.011-1.616 0.107-0.84 0.194-1.44 0.515-1.997 1.069-0.788 0.783-1.035 1.416-1.034 2.646 0.001 1.17 0.225 1.785 0.876 2.411 0.68 0.652 1.328 0.895 2.997 1.12 1.297 0.175 1.607 0.336 1.695 0.881 0.075 0.459-0.268 0.947-0.761 1.084-0.128 0.035-0.552 0.065-0.944 0.065-0.848 0-1.438-0.131-2.078-0.462-0.31-0.16-0.471-0.211-0.572-0.18-0.077 0.024-0.479 0.384-0.893 0.799-0.61 0.613-0.752 0.789-0.752 0.931 0 0.384 0.996 1.085 1.935 1.363 0.846 0.25 1.355 0.31 2.457 0.287 0.908-0.019 1.117-0.043 1.597-0.183z"></path>
</svg>
